c4f3f3c6ca73fcb7beac137105dadab4 *tests/data/fate/spdif-dca-master-core-remux.spdif
2400256 tests/data/fate/spdif-dca-master-core-remux.spdif
#tb 0: 1/90000
#media_type 0: audio
#codec_id 0: dts
#sample_rate 0: 48000
#channel_layout_name 0: 5.1(side)
0,          0,          0,      960,     2012, 0x671dc73a
0,        960,        960,      960,     2012, 0x7fd5b1d2
0,       1920,       1920,      960,     2012, 0xbe7b9e5e
0,       2880,       2880,      960,     2012, 0x671dc73a
0,       3840,       3840,      960,     2012, 0x7fd5b1d2
0,       4800,       4800,      960,     2012, 0xbe7b9e5e
0,       5760,       5760,      960,     2012, 0x671dc73a
0,       6720,       6720,      960,     2012, 0x7fd5b1d2
0,       7680,       7680,      960,     2012, 0xbe7b9e5e
0,       8640,       8640,      960,     2012, 0x671dc73a
0,       9600,       9600,      960,     2012, 0x7fd5b1d2
0,      10560,      10560,      960,     2012, 0xbe7b9e5e
0,      11520,      11520,      960,     2012, 0x671dc73a
0,      12480,      12480,      960,     2012, 0x7fd5b1d2
0,      13440,      13440,      960,     2012, 0xbe7b9e5e
0,      14400,      14400,      960,     2012, 0x671dc73a
0,      15360,      15360,      960,     2012, 0x7fd5b1d2
0,      16320,      16320,      960,     2012, 0xbe7b9e5e
0,      17280,      17280,      960,     2012, 0x671dc73a
0,      18240,      18240,      960,     2012, 0x7fd5b1d2
0,      19200,      19200,      960,     2012, 0xbe7b9e5e
0,      20160,      20160,      960,     2012, 0x671dc73a
0,      21120,      21120,      960,     2012, 0x7fd5b1d2
0,      22080,      22080,      960,     2012, 0xbe7b9e5e
0,      23040,      23040,      960,     2012, 0x671dc73a
0,      24000,      24000,      960,     2012, 0x7fd5b1d2
0,      24960,      24960,      960,     2012, 0xbe7b9e5e
0,      25920,      25920,      960,     2012, 0x671dc73a
0,      26880,      26880,      960,     2012, 0x7fd5b1d2
0,      27840,      27840,      960,     2012, 0xbe7b9e5e
0,      28800,      28800,      960,     2012, 0x671dc73a
0,      29760,      29760,      960,     2012, 0x7fd5b1d2
0,      30720,      30720,      960,     2012, 0xbe7b9e5e
0,      31680,      31680,      960,     2012, 0x671dc73a
0,      32640,      32640,      960,     2012, 0x7fd5b1d2
0,      33600,      33600,      960,     2012, 0xbe7b9e5e
0,      34560,      34560,      960,     2012, 0x671dc73a
0,      35520,      35520,      960,     2012, 0x7fd5b1d2
0,      36480,      36480,      960,     2012, 0xbe7b9e5e
0,      37440,      37440,      960,     2012, 0x671dc73a
0,      38400,      38400,      960,     2012, 0x7fd5b1d2
0,      39360,      39360,      960,     2012, 0xbe7b9e5e
0,      40320,      40320,      960,     2012, 0x671dc73a
0,      41280,      41280,      960,     2012, 0x7fd5b1d2
0,      42240,      42240,      960,     2012, 0xbe7b9e5e
0,      43200,      43200,      960,     2012, 0x671dc73a
0,      44160,      44160,      960,     2012, 0x7fd5b1d2
0,      45120,      45120,      960,     2012, 0xbe7b9e5e
0,      46080,      46080,      960,     2012, 0x671dc73a
0,      47040,      47040,      960,     2012, 0x7fd5b1d2
0,      48000,      48000,      960,     2012, 0xbe7b9e5e
0,      48960,      48960,      960,     2012, 0x671dc73a
0,      49920,      49920,      960,     2012, 0x7fd5b1d2
0,      50880,      50880,      960,     2012, 0xbe7b9e5e
0,      51840,      51840,      960,     2012, 0x671dc73a
0,      52800,      52800,      960,     2012, 0x7fd5b1d2
0,      53760,      53760,      960,     2012, 0xbe7b9e5e
0,      54720,      54720,      960,     2012, 0x671dc73a
0,      55680,      55680,      960,     2012, 0x7fd5b1d2
0,      56640,      56640,      960,     2012, 0xbe7b9e5e
0,      57600,      57600,      960,     2012, 0x671dc73a
0,      58560,      58560,      960,     2012, 0x7fd5b1d2
0,      59520,      59520,      960,     2012, 0xbe7b9e5e
0,      60480,      60480,      960,     2012, 0x671dc73a
0,      61440,      61440,      960,     2012, 0x7fd5b1d2
0,      62400,      62400,      960,     2012, 0xbe7b9e5e
0,      63360,      63360,      960,     2012, 0x671dc73a
0,      64320,      64320,      960,     2012, 0x7fd5b1d2
0,      65280,      65280,      960,     2012, 0xbe7b9e5e
0,      66240,      66240,      960,     2012, 0x671dc73a
0,      67200,      67200,      960,     2012, 0x7fd5b1d2
0,      68160,      68160,      960,     2012, 0xbe7b9e5e
0,      69120,      69120,      960,     2012, 0x671dc73a
0,      70080,      70080,      960,     2012, 0x7fd5b1d2
0,      71040,      71040,      960,     2012, 0xbe7b9e5e
0,      72000,      72000,      960,     2012, 0x671dc73a
0,      72960,      72960,      960,     2012, 0x7fd5b1d2
0,      73920,      73920,      960,     2012, 0xbe7b9e5e
0,      74880,      74880,      960,     2012, 0x671dc73a
0,      75840,      75840,      960,     2012, 0x7fd5b1d2
0,      76800,      76800,      960,     2012, 0xbe7b9e5e
0,      77760,      77760,      960,     2012, 0x671dc73a
0,      78720,      78720,      960,     2012, 0x7fd5b1d2
0,      79680,      79680,      960,     2012, 0xbe7b9e5e
0,      80640,      80640,      960,     2012, 0x671dc73a
0,      81600,      81600,      960,     2012, 0x7fd5b1d2
0,      82560,      82560,      960,     2012, 0xbe7b9e5e
0,      83520,      83520,      960,     2012, 0x671dc73a
0,      84480,      84480,      960,     2012, 0x7fd5b1d2
0,      85440,      85440,      960,     2012, 0xbe7b9e5e
0,      86400,      86400,      960,     2012, 0x671dc73a
0,      87360,      87360,      960,     2012, 0x7fd5b1d2
0,      88320,      88320,      960,     2012, 0xbe7b9e5e
0,      89280,      89280,      960,     2012, 0x671dc73a
0,      90240,      90240,      960,     2012, 0x7fd5b1d2
0,      91200,      91200,      960,     2012, 0xa9259df1
0,      92160,      92160,      960,     2012, 0x3e8c2b92
0,      93120,      93120,      960,     2012, 0x4876a9ff
0,      94080,      94080,      960,     2012, 0x7e469182
0,      95040,      95040,      960,     2012, 0x10eba401
0,      96000,      96000,      960,     2012, 0x51c68ed3
0,      96960,      96960,      960,     2012, 0x3f52901b
0,      97920,      97920,      960,     2012, 0x7bebacce
0,      98880,      98880,      960,     2012, 0xcb94898d
0,      99840,      99840,      960,     2012, 0x14e3ae70
0,     100800,     100800,      960,     2012, 0x016893cb
0,     101760,     101760,      960,     2012, 0x00739f0a
0,     102720,     102720,      960,     2012, 0x834aba41
0,     103680,     103680,      960,     2012, 0x6a92ac08
0,     104640,     104640,      960,     2012, 0x09eda257
0,     105600,     105600,      960,     2012, 0x81449e3f
0,     106560,     106560,      960,     2012, 0xe6eb91d4
0,     107520,     107520,      960,     2012, 0x51158c0e
0,     108480,     108480,      960,     2012, 0x84e4a013
0,     109440,     109440,      960,     2012, 0x4c48a0e6
0,     110400,     110400,      960,     2012, 0xf54c9811
0,     111360,     111360,      960,     2012, 0x62778edb
0,     112320,     112320,      960,     2012, 0x7226a51b
0,     113280,     113280,      960,     2012, 0x44b9aad8
0,     114240,     114240,      960,     2012, 0x8aa6b380
0,     115200,     115200,      960,     2012, 0xc88c99e6
0,     116160,     116160,      960,     2012, 0xed5e93e2
0,     117120,     117120,      960,     2012, 0xeb0b9755
0,     118080,     118080,      960,     2012, 0xe5ba8ca9
0,     119040,     119040,      960,     2012, 0x2fef9bcf
0,     120000,     120000,      960,     2012, 0xf19c8749
0,     120960,     120960,      960,     2012, 0x0feb94d0
0,     121920,     121920,      960,     2012, 0x1f9194d1
0,     122880,     122880,      960,     2012, 0x0cad9822
0,     123840,     123840,      960,     2012, 0xe6f79152
0,     124800,     124800,      960,     2012, 0x69e78955
0,     125760,     125760,      960,     2012, 0x91dd8a1b
0,     126720,     126720,      960,     2012, 0x63fe8eea
0,     127680,     127680,      960,     2012, 0x8f6d90a2
0,     128640,     128640,      960,     2012, 0xe3bf8626
0,     129600,     129600,      960,     2012, 0xd08599db
0,     130560,     130560,      960,     2012, 0xf556a282
0,     131520,     131520,      960,     2012, 0x7f8c8f90
0,     132480,     132480,      960,     2012, 0xa04493b9
0,     133440,     133440,      960,     2012, 0x21a19b3a
0,     134400,     134400,      960,     2012, 0x6ead9244
0,     135360,     135360,      960,     2012, 0xe65290d7
0,     136320,     136320,      960,     2012, 0x8ff58a8e
0,     137280,     137280,      960,     2012, 0x24ada603
0,     138240,     138240,      960,     2012, 0x79cb85c7
0,     139200,     139200,      960,     2012, 0x63c0ac54
0,     140160,     140160,      960,     2012, 0x7f719f83
0,     141120,     141120,      960,     2012, 0x2eb69654
0,     142080,     142080,      960,     2012, 0xf5149bc0
0,     143040,     143040,      960,     2012, 0xd0d6a414
0,     144000,     144000,      960,     2012, 0x4f4a8ed3
0,     144960,     144960,      960,     2012, 0x20888cb5
0,     145920,     145920,      960,     2012, 0x13439c86
0,     146880,     146880,      960,     2012, 0xc8fc98e1
0,     147840,     147840,      960,     2012, 0x14689766
0,     148800,     148800,      960,     2012, 0x830293e4
0,     149760,     149760,      960,     2012, 0xdd5bb8ce
0,     150720,     150720,      960,     2012, 0x005ea280
0,     151680,     151680,      960,     2012, 0x9b0581e2
0,     152640,     152640,      960,     2012, 0x210f89b8
0,     153600,     153600,      960,     2012, 0xb7c180bd
0,     154560,     154560,      960,     2012, 0xe53c85e4
0,     155520,     155520,      960,     2012, 0x1f689207
0,     156480,     156480,      960,     2012, 0x5653813b
0,     157440,     157440,      960,     2012, 0x1d278d66
0,     158400,     158400,      960,     2012, 0xd94c9a83
0,     159360,     159360,      960,     2012, 0x7af48548
0,     160320,     160320,      960,     2012, 0x86209c99
0,     161280,     161280,      960,     2012, 0x6e3b7fc9
0,     162240,     162240,      960,     2012, 0x41c289e7
0,     163200,     163200,      960,     2012, 0x8bea85db
0,     164160,     164160,      960,     2012, 0x45c98c39
0,     165120,     165120,      960,     2012, 0xee098755
0,     166080,     166080,      960,     2012, 0x485d9ec1
0,     167040,     167040,      960,     2012, 0x78819023
0,     168000,     168000,      960,     2012, 0xf43377bd
0,     168960,     168960,      960,     2012, 0x43fc9439
0,     169920,     169920,      960,     2012, 0x045e9bf3
0,     170880,     170880,      960,     2012, 0x0fc09f0c
0,     171840,     171840,      960,     2012, 0x7ba69bf5
0,     172800,     172800,      960,     2012, 0x4aa7aaf0
0,     173760,     173760,      960,     2012, 0x620c85bf
0,     174720,     174720,      960,     2012, 0xa6bb8a30
0,     175680,     175680,      960,     2012, 0xfd10883c
0,     176640,     176640,      960,     2012, 0x32037e17
0,     177600,     177600,      960,     2012, 0xb18c9e01
0,     178560,     178560,      960,     2012, 0xd8206ee5
0,     179520,     179520,      960,     2012, 0xdbc49136
0,     180480,     180480,      960,     2012, 0x650a785d
0,     181440,     181440,      960,     2012, 0x9e107d61
0,     182400,     182400,      960,     2012, 0xbf4eac50
0,     183360,     183360,      960,     2012, 0x9d8f79b2
0,     184320,     184320,      960,     2012, 0x252d8e8a
0,     185280,     185280,      960,     2012, 0x00af8fd6
0,     186240,     186240,      960,     2012, 0x9e388d3b
0,     187200,     187200,      960,     2012, 0x75de7f56
0,     188160,     188160,      960,     2012, 0xd502839c
0,     189120,     189120,      960,     2012, 0x66709e03
0,     190080,     190080,      960,     2012, 0x3e0a96ba
0,     191040,     191040,      960,     2012, 0x0813ad4e
0,     192000,     192000,      960,     2012, 0x799c90c5
0,     192960,     192960,      960,     2012, 0x98a18bed
0,     193920,     193920,      960,     2012, 0x8cd197d7
0,     194880,     194880,      960,     2012, 0xf9ea8b22
0,     195840,     195840,      960,     2012, 0x674f7cd2
0,     196800,     196800,      960,     2012, 0xa5c39136
0,     197760,     197760,      960,     2012, 0xe064ac30
0,     198720,     198720,      960,     2012, 0x2af78c75
0,     199680,     199680,      960,     2012, 0x43df9b19
0,     200640,     200640,      960,     2012, 0x8d1a87d5
0,     201600,     201600,      960,     2012, 0xd5be8d29
0,     202560,     202560,      960,     2012, 0x43448bd4
0,     203520,     203520,      960,     2012, 0xa128a30b
0,     204480,     204480,      960,     2012, 0x6fc29902
0,     205440,     205440,      960,     2012, 0x5854a24b
0,     206400,     206400,      960,     2012, 0xb222958a
0,     207360,     207360,      960,     2012, 0xfca39cce
0,     208320,     208320,      960,     2012, 0xee0087f0
0,     209280,     209280,      960,     2012, 0xd2d69b8c
0,     210240,     210240,      960,     2012, 0xe2308f8d
0,     211200,     211200,      960,     2012, 0x8dc4b09a
0,     212160,     212160,      960,     2012, 0x14489aef
0,     213120,     213120,      960,     2012, 0x900f9835
0,     214080,     214080,      960,     2012, 0x0092a95f
0,     215040,     215040,      960,     2012, 0xfd90b1bf
0,     216000,     216000,      960,     2012, 0xb11ab5d5
0,     216960,     216960,      960,     2012, 0xc802b908
0,     217920,     217920,      960,     2012, 0xb12aa91e
0,     218880,     218880,      960,     2012, 0xd173c2a9
0,     219840,     219840,      960,     2012, 0xaeafb887
0,     220800,     220800,      960,     2012, 0xeb7eb0d7
0,     221760,     221760,      960,     2012, 0x9afbc56a
0,     222720,     222720,      960,     2012, 0x2d78bc34
0,     223680,     223680,      960,     2012, 0x6550aed1
0,     224640,     224640,      960,     2012, 0xd514a55d
0,     225600,     225600,      960,     2012, 0x9058c263
0,     226560,     226560,      960,     2012, 0xf819b66a
0,     227520,     227520,      960,     2012, 0x16a5c902
0,     228480,     228480,      960,     2012, 0x602fc11b
0,     229440,     229440,      960,     2012, 0xe3c6b177
0,     230400,     230400,      960,     2012, 0xacc4cd06
0,     231360,     231360,      960,     2012, 0xeb96addb
0,     232320,     232320,      960,     2012, 0x1195cad3
0,     233280,     233280,      960,     2012, 0x8e96ad7f
0,     234240,     234240,      960,     2012, 0x31e592b7
0,     235200,     235200,      960,     2012, 0xa0c5ccf0
0,     236160,     236160,      960,     2012, 0x6e77c92b
0,     237120,     237120,      960,     2012, 0xe87fa928
0,     238080,     238080,      960,     2012, 0x4923bcdb
0,     239040,     239040,      960,     2012, 0x3260b452
0,     240000,     240000,      960,     2012, 0x62beafa0
0,     240960,     240960,      960,     2012, 0x5a6fc18a
0,     241920,     241920,      960,     2012, 0x9d05ae87
0,     242880,     242880,      960,     2012, 0xb577a54e
0,     243840,     243840,      960,     2012, 0xd66bc5ef
0,     244800,     244800,      960,     2012, 0x40bec7bb
0,     245760,     245760,      960,     2012, 0xedd3a1b9
0,     246720,     246720,      960,     2012, 0xf6f49f83
0,     247680,     247680,      960,     2012, 0x316fb06d
0,     248640,     248640,      960,     2012, 0xc3f3a874
0,     249600,     249600,      960,     2012, 0x3a96b3bd
0,     250560,     250560,      960,     2012, 0x825aba30
0,     251520,     251520,      960,     2012, 0x5b58ce66
0,     252480,     252480,      960,     2012, 0x412dc092
0,     253440,     253440,      960,     2012, 0xcb47bfa3
0,     254400,     254400,      960,     2012, 0xe025bb79
0,     255360,     255360,      960,     2012, 0x0042ba53
0,     256320,     256320,      960,     2012, 0x7e9bba1d
0,     257280,     257280,      960,     2012, 0x0058c99d
0,     258240,     258240,      960,     2012, 0x47d2b590
0,     259200,     259200,      960,     2012, 0xdf4ba9c6
0,     260160,     260160,      960,     2012, 0xe671987c
0,     261120,     261120,      960,     2012, 0x90dccc89
0,     262080,     262080,      960,     2012, 0x012ccae9
0,     263040,     263040,      960,     2012, 0x2eb5b83e
0,     264000,     264000,      960,     2012, 0x3fecb7f4
0,     264960,     264960,      960,     2012, 0x7955a464
0,     265920,     265920,      960,     2012, 0xfe9eb3c3
0,     266880,     266880,      960,     2012, 0x7457c904
0,     267840,     267840,      960,     2012, 0xd23ea69d
0,     268800,     268800,      960,     2012, 0xc497bf82
0,     269760,     269760,      960,     2012, 0x15e5c241
0,     270720,     270720,      960,     2012, 0x3dfea71f
0,     271680,     271680,      960,     2012, 0x1e59c9c0
0,     272640,     272640,      960,     2012, 0x1a34b927
0,     273600,     273600,      960,     2012, 0xbf42b430
0,     274560,     274560,      960,     2012, 0xf084c29f
0,     275520,     275520,      960,     2012, 0x6443c44a
0,     276480,     276480,      960,     2012, 0x7985a4a5
0,     277440,     277440,      960,     2012, 0x27add059
0,     278400,     278400,      960,     2012, 0x7f1faea4
0,     279360,     279360,      960,     2012, 0x8d9dc732
0,     280320,     280320,      960,     2012, 0xf272c32e
0,     281280,     281280,      960,     2012, 0x4fa3ab11
0,     282240,     282240,      960,     2012, 0x512e9887
0,     283200,     283200,      960,     2012, 0xd478d55b
0,     284160,     284160,      960,     2012, 0xa94a9d93
0,     285120,     285120,      960,     2012, 0xff73d812
0,     286080,     286080,      960,     2012, 0xd3a6b9ef
0,     287040,     287040,      960,     2012, 0x7b4ebc1e
0,     288000,     288000,      960,     2012, 0xcc7bba1a
0,     288960,     288960,      960,     2012, 0x1aa7cd1a
0,     289920,     289920,      960,     2012, 0xd707c202
0,     290880,     290880,      960,     2012, 0xcb6ac18b
0,     291840,     291840,      960,     2012, 0x1ccdcbd6
0,     292800,     292800,      960,     2012, 0x700cb51e
0,     293760,     293760,      960,     2012, 0x27b6a3e7
0,     294720,     294720,      960,     2012, 0x8570b8cd
0,     295680,     295680,      960,     2012, 0x22f2b2ed
0,     296640,     296640,      960,     2012, 0x75edb63e
0,     297600,     297600,      960,     2012, 0x8145b53f
0,     298560,     298560,      960,     2012, 0x15efb8bc
0,     299520,     299520,      960,     2012, 0x200bb5e6
0,     300480,     300480,      960,     2012, 0xfa79b178
0,     301440,     301440,      960,     2012, 0xbd39cdf4
0,     302400,     302400,      960,     2012, 0x0970b0b2
0,     303360,     303360,      960,     2012, 0x1acebe72
0,     304320,     304320,      960,     2012, 0x1a26aa71
0,     305280,     305280,      960,     2012, 0x8f71aa54
0,     306240,     306240,      960,     2012, 0x0265c523
0,     307200,     307200,      960,     2012, 0x2df0a53b
0,     308160,     308160,      960,     2012, 0x59a7a37a
0,     309120,     309120,      960,     2012, 0x9ad9acda
0,     310080,     310080,      960,     2012, 0x738cbc6f
0,     311040,     311040,      960,     2012, 0xc646a7ad
0,     312000,     312000,      960,     2012, 0x7f25c19b
0,     312960,     312960,      960,     2012, 0x1439bdb0
0,     313920,     313920,      960,     2012, 0xa40cbef0
0,     314880,     314880,      960,     2012, 0x9b09b99a
0,     315840,     315840,      960,     2012, 0x5ff0bbde
0,     316800,     316800,      960,     2012, 0x3981c2d6
0,     317760,     317760,      960,     2012, 0xfa89b40d
0,     318720,     318720,      960,     2012, 0x12e9a7b9
0,     319680,     319680,      960,     2012, 0xc5faaac3
0,     320640,     320640,      960,     2012, 0xe12bc3a9
0,     321600,     321600,      960,     2012, 0x9c57b8f3
0,     322560,     322560,      960,     2012, 0x4fd4b6c0
0,     323520,     323520,      960,     2012, 0xb72cca50
0,     324480,     324480,      960,     2012, 0xb4d4cbbb
0,     325440,     325440,      960,     2012, 0x9399bfa1
0,     326400,     326400,      960,     2012, 0x0abfb708
0,     327360,     327360,      960,     2012, 0xd1d9acc0
0,     328320,     328320,      960,     2012, 0x079ab5b2
0,     329280,     329280,      960,     2012, 0x05a0be32
0,     330240,     330240,      960,     2012, 0x445cc8db
0,     331200,     331200,      960,     2012, 0xf9a3aa71
0,     332160,     332160,      960,     2012, 0xd2e29eac
0,     333120,     333120,      960,     2012, 0x391a9f20
0,     334080,     334080,      960,     2012, 0x571eab4e
0,     335040,     335040,      960,     2012, 0x6962bc96
0,     336000,     336000,      960,     2012, 0x2f04b495
0,     336960,     336960,      960,     2012, 0x7b66bab7
0,     337920,     337920,      960,     2012, 0xa718b8c9
0,     338880,     338880,      960,     2012, 0xb069a54e
0,     339840,     339840,      960,     2012, 0xc052a1d2
0,     340800,     340800,      960,     2012, 0x661ac62e
0,     341760,     341760,      960,     2012, 0xc4ebb529
0,     342720,     342720,      960,     2012, 0xf998b251
0,     343680,     343680,      960,     2012, 0x0ee8bffa
0,     344640,     344640,      960,     2012, 0x6e3fd984
0,     345600,     345600,      960,     2012, 0x5825b63f
0,     346560,     346560,      960,     2012, 0x9c79c561
0,     347520,     347520,      960,     2012, 0x3470beb7
0,     348480,     348480,      960,     2012, 0x9135bd9d
0,     349440,     349440,      960,     2012, 0xd8e8bb7f
0,     350400,     350400,      960,     2012, 0x322ea448
0,     351360,     351360,      960,     2012, 0xe974b3ab
0,     352320,     352320,      960,     2012, 0x4151c32d
0,     353280,     353280,      960,     2012, 0x2b05bf7d
0,     354240,     354240,      960,     2012, 0x4111c0d8
0,     355200,     355200,      960,     2012, 0xff9ad574
0,     356160,     356160,      960,     2012, 0xa55dced2
0,     357120,     357120,      960,     2012, 0x11e6c0cb
0,     358080,     358080,      960,     2012, 0x2478b998
0,     359040,     359040,      960,     2012, 0xdc8abb54
0,     360000,     360000,      960,     2012, 0xe16da510
0,     360960,     360960,      960,     2012, 0xfc18b3db
0,     361920,     361920,      960,     2012, 0x1426cd42
0,     362880,     362880,      960,     2012, 0xb560a661
0,     363840,     363840,      960,     2012, 0xc200aa4b
0,     364800,     364800,      960,     2012, 0xea00af2a
0,     365760,     365760,      960,     2012, 0x32bcbf84
0,     366720,     366720,      960,     2012, 0x4c29cb2a
0,     367680,     367680,      960,     2012, 0xe8a2aabc
0,     368640,     368640,      960,     2012, 0x64bdb6cd
0,     369600,     369600,      960,     2012, 0x3a80adbc
0,     370560,     370560,      960,     2012, 0xa012b2c4
0,     371520,     371520,      960,     2012, 0xac3ebce7
0,     372480,     372480,      960,     2012, 0xfae1b2a7
0,     373440,     373440,      960,     2012, 0x37b4ddae
0,     374400,     374400,      960,     2012, 0x8ff9bd55
0,     375360,     375360,      960,     2012, 0x16f6abeb
0,     376320,     376320,      960,     2012, 0x5820badf
0,     377280,     377280,      960,     2012, 0x7183b45e
0,     378240,     378240,      960,     2012, 0xc0a6c826
0,     379200,     379200,      960,     2012, 0x4c36bb02
0,     380160,     380160,      960,     2012, 0xda46b854
0,     381120,     381120,      960,     2012, 0xcc8accb6
0,     382080,     382080,      960,     2012, 0xa6b2c3a2
0,     383040,     383040,      960,     2012, 0x1c91cc00
0,     384000,     384000,      960,     2012, 0xf33cd721
0,     384960,     384960,      960,     2012, 0x7f86d2ed
0,     385920,     385920,      960,     2012, 0x9fdabb1d
0,     386880,     386880,      960,     2012, 0x33ebbbc4
0,     387840,     387840,      960,     2012, 0x2741ba4f
0,     388800,     388800,      960,     2012, 0x0d0dd107
0,     389760,     389760,      960,     2012, 0xf1d5b551
0,     390720,     390720,      960,     2012, 0xf47dbebc
0,     391680,     391680,      960,     2012, 0xa955cea3
0,     392640,     392640,      960,     2012, 0x51d6b407
0,     393600,     393600,      960,     2012, 0xb7d3c2c0
0,     394560,     394560,      960,     2012, 0xce3cc6ae
0,     395520,     395520,      960,     2012, 0x782cc184
0,     396480,     396480,      960,     2012, 0xf4cec2af
0,     397440,     397440,      960,     2012, 0xa43eb295
0,     398400,     398400,      960,     2012, 0xc74aa62d
0,     399360,     399360,      960,     2012, 0xf9dfc11f
0,     400320,     400320,      960,     2012, 0x3da1a319
0,     401280,     401280,      960,     2012, 0xf613bd75
0,     402240,     402240,      960,     2012, 0x10d9cda4
0,     403200,     403200,      960,     2012, 0x08c9bcb3
0,     404160,     404160,      960,     2012, 0x43b9d170
0,     405120,     405120,      960,     2012, 0x1f0db940
0,     406080,     406080,      960,     2012, 0x3c4ec614
0,     407040,     407040,      960,     2012, 0xa94abaaa
0,     408000,     408000,      960,     2012, 0x2557a922
0,     408960,     408960,      960,     2012, 0x4245c4b4
0,     409920,     409920,      960,     2012, 0x0cb1b06f
0,     410880,     410880,      960,     2012, 0x778bbeab
0,     411840,     411840,      960,     2012, 0x5ce4ca3b
0,     412800,     412800,      960,     2012, 0xe70e9fd3
0,     413760,     413760,      960,     2012, 0x28afbcbf
0,     414720,     414720,      960,     2012, 0xc41fb9b2
0,     415680,     415680,      960,     2012, 0xd60cbfae
0,     416640,     416640,      960,     2012, 0x1087cb26
0,     417600,     417600,      960,     2012, 0xc9face3b
0,     418560,     418560,      960,     2012, 0x7403b314
0,     419520,     419520,      960,     2012, 0xe034ba97
0,     420480,     420480,      960,     2012, 0x15dcbc67
0,     421440,     421440,      960,     2012, 0x20d3bcff
0,     422400,     422400,      960,     2012, 0xc136a2ce
0,     423360,     423360,      960,     2012, 0x038bb025
0,     424320,     424320,      960,     2012, 0xd655cf84
0,     425280,     425280,      960,     2012, 0xcf54c656
0,     426240,     426240,      960,     2012, 0x3c77bb0d
0,     427200,     427200,      960,     2012, 0xd765d7a7
0,     428160,     428160,      960,     2012, 0x1a60b020
0,     429120,     429120,      960,     2012, 0x83c8c2e9
0,     430080,     430080,      960,     2012, 0x9b97c6e7
0,     431040,     431040,      960,     2012, 0x3870ad63
0,     432000,     432000,      960,     2012, 0x0e3ac67d
0,     432960,     432960,      960,     2012, 0xeb53c935
0,     433920,     433920,      960,     2012, 0xeeb0c3e1
0,     434880,     434880,      960,     2012, 0x9cb5bdb9
0,     435840,     435840,      960,     2012, 0x64b1afec
0,     436800,     436800,      960,     2012, 0x57dcadbc
0,     437760,     437760,      960,     2012, 0xed76c5fd
0,     438720,     438720,      960,     2012, 0x0cb4cac5
0,     439680,     439680,      960,     2012, 0xd30bbd06
0,     440640,     440640,      960,     2012, 0xaee9c6c3
0,     441600,     441600,      960,     2012, 0xe845c9b3
0,     442560,     442560,      960,     2012, 0xc09cc7fc
0,     443520,     443520,      960,     2012, 0xfdebaacb
0,     444480,     444480,      960,     2012, 0x6f2db89f
0,     445440,     445440,      960,     2012, 0x7d89bee7
0,     446400,     446400,      960,     2012, 0x8699b8be
0,     447360,     447360,      960,     2012, 0x57d6cc8a
0,     448320,     448320,      960,     2012, 0xcdbcd246
0,     449280,     449280,      960,     2012, 0x9057b285
0,     450240,     450240,      960,     2012, 0x2ac9cc87
0,     451200,     451200,      960,     2012, 0xeb20c421
0,     452160,     452160,      960,     2012, 0x4789d11f
0,     453120,     453120,      960,     2012, 0x55e7c9fe
0,     454080,     454080,      960,     2012, 0xd81cb4c6
0,     455040,     455040,      960,     2012, 0x2af0a88e
0,     456000,     456000,      960,     2012, 0x7d96a4ee
0,     456960,     456960,      960,     2012, 0xff7cc3ea
0,     457920,     457920,      960,     2012, 0x2514d2a8
0,     458880,     458880,      960,     2012, 0x7d2cccc3
0,     459840,     459840,      960,     2012, 0x98dccbbf
0,     460800,     460800,      960,     2012, 0x55f2bd3e
0,     461760,     461760,      960,     2012, 0x0e58bbd7
0,     462720,     462720,      960,     2012, 0x1520c45d
0,     463680,     463680,      960,     2012, 0x3c60cede
0,     464640,     464640,      960,     2012, 0xbfb2be6b
0,     465600,     465600,      960,     2012, 0xa839c2d5
0,     466560,     466560,      960,     2012, 0x7713bdba
0,     467520,     467520,      960,     2012, 0xf16c9e95
0,     468480,     468480,      960,     2012, 0x8e94caf1
0,     469440,     469440,      960,     2012, 0x3915c673
0,     470400,     470400,      960,     2012, 0x69afc76f
0,     471360,     471360,      960,     2012, 0x3ebec514
0,     472320,     472320,      960,     2012, 0x70c5dd9b
0,     473280,     473280,      960,     2012, 0x6868b7d9
0,     474240,     474240,      960,     2012, 0x9a31c801
0,     475200,     475200,      960,     2012, 0x93c4b6ac
0,     476160,     476160,      960,     2012, 0xb1aaca39
0,     477120,     477120,      960,     2012, 0x8f67b9ed
0,     478080,     478080,      960,     2012, 0x09adcf1f
0,     479040,     479040,      960,     2012, 0xe172cb3c
0,     480000,     480000,      960,     2012, 0x044bbdc5
0,     480960,     480960,      960,     2012, 0x391cb3d9
0,     481920,     481920,      960,     2012, 0x3bd1bc29
0,     482880,     482880,      960,     2012, 0x8a78c5d2
0,     483840,     483840,      960,     2012, 0xa46fce11
0,     484800,     484800,      960,     2012, 0x4c13d9bc
0,     485760,     485760,      960,     2012, 0x7f47ce4f
0,     486720,     486720,      960,     2012, 0xa03ebcae
0,     487680,     487680,      960,     2012, 0xf6f2b2c8
0,     488640,     488640,      960,     2012, 0x7995be2a
0,     489600,     489600,      960,     2012, 0x22d7b94a
0,     490560,     490560,      960,     2012, 0x07bcc06a
0,     491520,     491520,      960,     2012, 0x04adcb6d
0,     492480,     492480,      960,     2012, 0x4aecc135
0,     493440,     493440,      960,     2012, 0x8442dc6a
0,     494400,     494400,      960,     2012, 0x9e67b826
0,     495360,     495360,      960,     2012, 0xb1c4b235
0,     496320,     496320,      960,     2012, 0x565ecaae
0,     497280,     497280,      960,     2012, 0x34a2c877
0,     498240,     498240,      960,     2012, 0x815eb148
0,     499200,     499200,      960,     2012, 0x354eb4ce
0,     500160,     500160,      960,     2012, 0xf74db8b1
0,     501120,     501120,      960,     2012, 0x56f3b430
0,     502080,     502080,      960,     2012, 0x39f9c72f
0,     503040,     503040,      960,     2012, 0x83d1bfde
0,     504000,     504000,      960,     2012, 0x2da1bf57
0,     504960,     504960,      960,     2012, 0xd97fc933
0,     505920,     505920,      960,     2012, 0x4b3edbfe
0,     506880,     506880,      960,     2012, 0xb975d346
0,     507840,     507840,      960,     2012, 0x856ac304
0,     508800,     508800,      960,     2012, 0xb38dba2e
0,     509760,     509760,      960,     2012, 0xbe14c822
0,     510720,     510720,      960,     2012, 0xb848c927
0,     511680,     511680,      960,     2012, 0x0a89c0e6
0,     512640,     512640,      960,     2012, 0x44a3c3d5
0,     513600,     513600,      960,     2012, 0x7af1c30c
0,     514560,     514560,      960,     2012, 0xe928b619
0,     515520,     515520,      960,     2012, 0xc9aeb012
0,     516480,     516480,      960,     2012, 0xae02cfde
0,     517440,     517440,      960,     2012, 0x0b42c3d9
0,     518400,     518400,      960,     2012, 0xa5b7c1ed
0,     519360,     519360,      960,     2012, 0xd2dcbcdc
0,     520320,     520320,      960,     2012, 0x18cfbf55
0,     521280,     521280,      960,     2012, 0x34f0c800
0,     522240,     522240,      960,     2012, 0x2a80bdba
0,     523200,     523200,      960,     2012, 0x5ef2b3a7
0,     524160,     524160,      960,     2012, 0x35a6ba33
0,     525120,     525120,      960,     2012, 0x1088bbf5
0,     526080,     526080,      960,     2012, 0xaec0bedf
0,     527040,     527040,      960,     2012, 0x769fb535
0,     528000,     528000,      960,     2012, 0xfe11b979
0,     528960,     528960,      960,     2012, 0xe856b37e
0,     529920,     529920,      960,     2012, 0x36c3cffd
0,     530880,     530880,      960,     2012, 0x4771db58
0,     531840,     531840,      960,     2012, 0x5467d13e
0,     532800,     532800,      960,     2012, 0xb405c1b5
0,     533760,     533760,      960,     2012, 0x3cbdc145
0,     534720,     534720,      960,     2012, 0xbb9ccdd7
0,     535680,     535680,      960,     2012, 0xac25ce9e
0,     536640,     536640,      960,     2012, 0x6d2ac82a
0,     537600,     537600,      960,     2012, 0x1661ba50
0,     538560,     538560,      960,     2012, 0xbc7ac82a
0,     539520,     539520,      960,     2012, 0x020bb4de
0,     540480,     540480,      960,     2012, 0x4e10cb93
0,     541440,     541440,      960,     2012, 0x3dabc15f
0,     542400,     542400,      960,     2012, 0x12acc64b
0,     543360,     543360,      960,     2012, 0x9cecb51a
0,     544320,     544320,      960,     2012, 0x959acb39
0,     545280,     545280,      960,     2012, 0x3ee7c0e8
0,     546240,     546240,      960,     2012, 0xde18c1df
0,     547200,     547200,      960,     2012, 0x3c72c3cd
0,     548160,     548160,      960,     2012, 0x1ac4bb5d
0,     549120,     549120,      960,     2012, 0xb155c741
0,     550080,     550080,      960,     2012, 0x5069c8aa
0,     551040,     551040,      960,     2012, 0x610db0bc
0,     552000,     552000,      960,     2012, 0xb82bc329
0,     552960,     552960,      960,     2012, 0x8bd4c522
0,     553920,     553920,      960,     2012, 0xd44bb865
0,     554880,     554880,      960,     2012, 0xb51ac7dc
0,     555840,     555840,      960,     2012, 0xfe2bc799
0,     556800,     556800,      960,     2012, 0x8cd1bb53
0,     557760,     557760,      960,     2012, 0xba13ca97
0,     558720,     558720,      960,     2012, 0xf107bd51
0,     559680,     559680,      960,     2012, 0xa04ece95
0,     560640,     560640,      960,     2012, 0x4f4faa54
0,     561600,     561600,      960,     2012, 0x5a74bfe1
0,     562560,     562560,      960,     2012, 0xdafade5b
0,     563520,     563520,      960,     2012, 0x738fba51
0,     564480,     564480,      960,     2012, 0xe7b2b78e
0,     565440,     565440,      960,     2012, 0x7685b6ce
0,     566400,     566400,      960,     2012, 0xae45bd8a
0,     567360,     567360,      960,     2012, 0xd52cc84e
0,     568320,     568320,      960,     2012, 0x04abd773
0,     569280,     569280,      960,     2012, 0x2badb0ff
0,     570240,     570240,      960,     2012, 0x0eaec6b2
0,     571200,     571200,      960,     2012, 0x7c1ec33f
0,     572160,     572160,      960,     2012, 0x8773b925
0,     573120,     573120,      960,     2012, 0x40bbc36d
0,     574080,     574080,      960,     2012, 0x330bc288
0,     575040,     575040,      960,     2012, 0x1659b6f5
0,     576000,     576000,      960,     2012, 0x66eac162
0,     576960,     576960,      960,     2012, 0xf3acdb3d
0,     577920,     577920,      960,     2012, 0x465abb87
0,     578880,     578880,      960,     2012, 0xe8e9bc16
0,     579840,     579840,      960,     2012, 0x71eebbd9
0,     580800,     580800,      960,     2012, 0x1f59cb2a
0,     581760,     581760,      960,     2012, 0x53e3c9e7
0,     582720,     582720,      960,     2012, 0xf410b939
0,     583680,     583680,      960,     2012, 0xdb13d1b3
0,     584640,     584640,      960,     2012, 0xcd26bf27
0,     585600,     585600,      960,     2012, 0x707ecc9c
0,     586560,     586560,      960,     2012, 0x3483b6bf
0,     587520,     587520,      960,     2012, 0x4184d451
0,     588480,     588480,      960,     2012, 0xcf6abfae
0,     589440,     589440,      960,     2012, 0x5c9eb4ca
0,     590400,     590400,      960,     2012, 0xf396be01
0,     591360,     591360,      960,     2012, 0x06bfda38
0,     592320,     592320,      960,     2012, 0x0e92bcf4
0,     593280,     593280,      960,     2012, 0xaaa2b99d
0,     594240,     594240,      960,     2012, 0xf112a9a9
0,     595200,     595200,      960,     2012, 0x2844bdf1
0,     596160,     596160,      960,     2012, 0xb96baf39
0,     597120,     597120,      960,     2012, 0xd4f2d157
0,     598080,     598080,      960,     2012, 0x7c74b149
0,     599040,     599040,      960,     2012, 0xbd43d5f2
0,     600000,     600000,      960,     2012, 0xaa10b2ba
0,     600960,     600960,      960,     2012, 0x66e9b95f
0,     601920,     601920,      960,     2012, 0x6f01abef
0,     602880,     602880,      960,     2012, 0x1cb5c664
0,     603840,     603840,      960,     2012, 0x5ee2afc5
0,     604800,     604800,      960,     2012, 0xeb39d213
0,     605760,     605760,      960,     2012, 0x1ffeaafc
0,     606720,     606720,      960,     2012, 0x6bb4d548
0,     607680,     607680,      960,     2012, 0xa045b23a
0,     608640,     608640,      960,     2012, 0x17c3aa49
0,     609600,     609600,      960,     2012, 0x2d47db7c
0,     610560,     610560,      960,     2012, 0x07ddc9ac
0,     611520,     611520,      960,     2012, 0xa386c99e
0,     612480,     612480,      960,     2012, 0x0e0bae8a
0,     613440,     613440,      960,     2012, 0x7d6fc419
0,     614400,     614400,      960,     2012, 0x34a3c5a2
0,     615360,     615360,      960,     2012, 0xda81c8e9
0,     616320,     616320,      960,     2012, 0xde53bcd8
0,     617280,     617280,      960,     2012, 0x372ac065
0,     618240,     618240,      960,     2012, 0x6d07a95c
0,     619200,     619200,      960,     2012, 0x296eb47f
0,     620160,     620160,      960,     2012, 0x0f47be2a
0,     621120,     621120,      960,     2012, 0x389ebaf6
0,     622080,     622080,      960,     2012, 0x9746ba3b
0,     623040,     623040,      960,     2012, 0x070e9aed
0,     624000,     624000,      960,     2012, 0xa4abc798
0,     624960,     624960,      960,     2012, 0xe55cac7b
0,     625920,     625920,      960,     2012, 0x0c71ba45
0,     626880,     626880,      960,     2012, 0x70fbb3c5
0,     627840,     627840,      960,     2012, 0xa35ec30a
0,     628800,     628800,      960,     2012, 0xf30ab935
0,     629760,     629760,      960,     2012, 0x2cbb9b99
0,     630720,     630720,      960,     2012, 0x6606c1bf
0,     631680,     631680,      960,     2012, 0x41ccad5c
0,     632640,     632640,      960,     2012, 0x352fc002
0,     633600,     633600,      960,     2012, 0x1763bd10
0,     634560,     634560,      960,     2012, 0xb54bcae6
0,     635520,     635520,      960,     2012, 0x7374ab92
0,     636480,     636480,      960,     2012, 0x2895a99a
0,     637440,     637440,      960,     2012, 0x9f68b02f
0,     638400,     638400,      960,     2012, 0xdfabbb76
0,     639360,     639360,      960,     2012, 0x764ea6c5
0,     640320,     640320,      960,     2012, 0x4e83c5a5
0,     641280,     641280,      960,     2012, 0xf0e8c76a
0,     642240,     642240,      960,     2012, 0xdc80b4ea
0,     643200,     643200,      960,     2012, 0xcc53b0a5
0,     644160,     644160,      960,     2012, 0x7893bc7f
0,     645120,     645120,      960,     2012, 0x6965b355
0,     646080,     646080,      960,     2012, 0x7f8fac00
0,     647040,     647040,      960,     2012, 0x6c71c7b8
0,     648000,     648000,      960,     2012, 0xa00ec367
0,     648960,     648960,      960,     2012, 0x5f0fc50e
0,     649920,     649920,      960,     2012, 0x1bd2ad87
0,     650880,     650880,      960,     2012, 0xd054ba2d
0,     651840,     651840,      960,     2012, 0xaf80a0d5
0,     652800,     652800,      960,     2012, 0x2acac873
0,     653760,     653760,      960,     2012, 0x260ca584
0,     654720,     654720,      960,     2012, 0x4f98aa7c
0,     655680,     655680,      960,     2012, 0x0254aa36
0,     656640,     656640,      960,     2012, 0xe3c7c33a
0,     657600,     657600,      960,     2012, 0x3b9ea70f
0,     658560,     658560,      960,     2012, 0xe829b7e6
0,     659520,     659520,      960,     2012, 0x9317a8d1
0,     660480,     660480,      960,     2012, 0x88b3a98f
0,     661440,     661440,      960,     2012, 0xa4a8c3bc
0,     662400,     662400,      960,     2012, 0x95c9a869
0,     663360,     663360,      960,     2012, 0x7f889fed
0,     664320,     664320,      960,     2012, 0x5438c408
0,     665280,     665280,      960,     2012, 0x3455a366
0,     666240,     666240,      960,     2012, 0x5319b33d
0,     667200,     667200,      960,     2012, 0xb19dc4f0
0,     668160,     668160,      960,     2012, 0xf080b109
0,     669120,     669120,      960,     2012, 0xef83d8e7
0,     670080,     670080,      960,     2012, 0x237ac69c
0,     671040,     671040,      960,     2012, 0xbb30b714
0,     672000,     672000,      960,     2012, 0x8745ba54
0,     672960,     672960,      960,     2012, 0x8588bd6c
0,     673920,     673920,      960,     2012, 0xc580bdde
0,     674880,     674880,      960,     2012, 0xb062baf1
0,     675840,     675840,      960,     2012, 0xe014b082
0,     676800,     676800,      960,     2012, 0x148bcb87
0,     677760,     677760,      960,     2012, 0x554bc13d
0,     678720,     678720,      960,     2012, 0xc410c270
0,     679680,     679680,      960,     2012, 0xb2c8b65b
0,     680640,     680640,      960,     2012, 0xa412b3f4
0,     681600,     681600,      960,     2012, 0xbb52aa9a
0,     682560,     682560,      960,     2012, 0x4005b527
0,     683520,     683520,      960,     2012, 0x8c5eb055
0,     684480,     684480,      960,     2012, 0x8622c142
0,     685440,     685440,      960,     2012, 0x05a3b861
0,     686400,     686400,      960,     2012, 0x9f6dbb4d
0,     687360,     687360,      960,     2012, 0x033fb867
0,     688320,     688320,      960,     2012, 0x243babd5
0,     689280,     689280,      960,     2012, 0x8d6db83c
0,     690240,     690240,      960,     2012, 0x3923b829
0,     691200,     691200,      960,     2012, 0x69b6b587
0,     692160,     692160,      960,     2012, 0xdda8d018
0,     693120,     693120,      960,     2012, 0x54b1b2a4
0,     694080,     694080,      960,     2012, 0x380eb1af
0,     695040,     695040,      960,     2012, 0xec3cbdb4
0,     696000,     696000,      960,     2012, 0x7ce9b4cf
0,     696960,     696960,      960,     2012, 0xcf6cb99b
0,     697920,     697920,      960,     2012, 0x7383ab97
0,     698880,     698880,      960,     2012, 0xaa4cc068
0,     699840,     699840,      960,     2012, 0x96d4c3db
0,     700800,     700800,      960,     2012, 0xab8cb84f
0,     701760,     701760,      960,     2012, 0x73dcacf9
0,     702720,     702720,      960,     2012, 0xf61ca122
0,     703680,     703680,      960,     2012, 0x9f1cbd5b
0,     704640,     704640,      960,     2012, 0x1f84aa3f
0,     705600,     705600,      960,     2012, 0xa003ad43
0,     706560,     706560,      960,     2012, 0x6cffa4ef
0,     707520,     707520,      960,     2012, 0x29559e1e
0,     708480,     708480,      960,     2012, 0x7a79b059
0,     709440,     709440,      960,     2012, 0xa1929c42
0,     710400,     710400,      960,     2012, 0x52dead1c
0,     711360,     711360,      960,     2012, 0x8f31b9f5
0,     712320,     712320,      960,     2012, 0xb8a899ec
0,     713280,     713280,      960,     2012, 0x7ca4b02d
0,     714240,     714240,      960,     2012, 0x2c92ae1b
0,     715200,     715200,      960,     2012, 0xe683a92f
0,     716160,     716160,      960,     2012, 0xe9d5abcf
0,     717120,     717120,      960,     2012, 0x757db377
0,     718080,     718080,      960,     2012, 0xd4a8bbae
0,     719040,     719040,      960,     2012, 0xeea5c4ee
0,     720000,     720000,      960,     2012, 0xc37ca9a9
0,     720960,     720960,      960,     2012, 0x8871bb51
0,     721920,     721920,      960,     2012, 0x5dd8b3a2
0,     722880,     722880,      960,     2012, 0xef0fae7f
0,     723840,     723840,      960,     2012, 0xe7ecb23e
0,     724800,     724800,      960,     2012, 0xc4f6d437
0,     725760,     725760,      960,     2012, 0x0c74b81d
0,     726720,     726720,      960,     2012, 0xee68b1ee
0,     727680,     727680,      960,     2012, 0x46b4b4a8
0,     728640,     728640,      960,     2012, 0x0526abca
0,     729600,     729600,      960,     2012, 0x7695ba55
0,     730560,     730560,      960,     2012, 0xc7f5ad90
0,     731520,     731520,      960,     2012, 0x0522b9bc
0,     732480,     732480,      960,     2012, 0x0eefc6ad
0,     733440,     733440,      960,     2012, 0x340dae16
0,     734400,     734400,      960,     2012, 0xea42bdc0
0,     735360,     735360,      960,     2012, 0xe047abb6
0,     736320,     736320,      960,     2012, 0x6da5c14f
0,     737280,     737280,      960,     2012, 0x46d8c11d
0,     738240,     738240,      960,     2012, 0x8f4d9f2f
0,     739200,     739200,      960,     2012, 0x6d00d26c
0,     740160,     740160,      960,     2012, 0x87fc9d1b
0,     741120,     741120,      960,     2012, 0xbba5b763
0,     742080,     742080,      960,     2012, 0xab58b853
0,     743040,     743040,      960,     2012, 0x8180b863
0,     744000,     744000,      960,     2012, 0x3684b3ba
0,     744960,     744960,      960,     2012, 0xf1a4a806
0,     745920,     745920,      960,     2012, 0x2826b48c
0,     746880,     746880,      960,     2012, 0x1883af7f
0,     747840,     747840,      960,     2012, 0x44c5c37a
0,     748800,     748800,      960,     2012, 0xec33c3f1
0,     749760,     749760,      960,     2012, 0xd67fb767
0,     750720,     750720,      960,     2012, 0x03c2c219
0,     751680,     751680,      960,     2012, 0x75a9b389
0,     752640,     752640,      960,     2012, 0xe041ad88
0,     753600,     753600,      960,     2012, 0x6bccb005
0,     754560,     754560,      960,     2012, 0xd881c24a
0,     755520,     755520,      960,     2012, 0x7dd0c302
0,     756480,     756480,      960,     2012, 0x2ba8a649
0,     757440,     757440,      960,     2012, 0x63e19eab
0,     758400,     758400,      960,     2012, 0x1c0dafce
0,     759360,     759360,      960,     2012, 0xf266bf47
0,     760320,     760320,      960,     2012, 0x11beb4b1
0,     761280,     761280,      960,     2012, 0xc6f6b2b5
0,     762240,     762240,      960,     2012, 0x15d4b4d0
0,     763200,     763200,      960,     2012, 0x08bfa1e7
0,     764160,     764160,      960,     2012, 0x18dbb7b5
0,     765120,     765120,      960,     2012, 0xc279cc67
0,     766080,     766080,      960,     2012, 0xd236bf28
0,     767040,     767040,      960,     2012, 0xc9d1b196
0,     768000,     768000,      960,     2012, 0xb605983e
0,     768960,     768960,      960,     2012, 0x8132c566
0,     769920,     769920,      960,     2012, 0x6be4cd39
0,     770880,     770880,      960,     2012, 0xce53c1f9
0,     771840,     771840,      960,     2012, 0xe1efac0f
0,     772800,     772800,      960,     2012, 0x3d60a57a
0,     773760,     773760,      960,     2012, 0x1beda4b7
0,     774720,     774720,      960,     2012, 0x34a4ac81
0,     775680,     775680,      960,     2012, 0x30b0be4b
0,     776640,     776640,      960,     2012, 0xc7ceaf45
0,     777600,     777600,      960,     2012, 0xade0b6ec
0,     778560,     778560,      960,     2012, 0xe00daf06
0,     779520,     779520,      960,     2012, 0x04f79fe4
0,     780480,     780480,      960,     2012, 0x8c59b7d9
0,     781440,     781440,      960,     2012, 0x6f66b92a
0,     782400,     782400,      960,     2012, 0x9b08b2c0
0,     783360,     783360,      960,     2012, 0xa8c1b5c1
0,     784320,     784320,      960,     2012, 0xe3aac0b0
0,     785280,     785280,      960,     2012, 0x1622bdaf
0,     786240,     786240,      960,     2012, 0x25e1a9ff
0,     787200,     787200,      960,     2012, 0x5577ad82
0,     788160,     788160,      960,     2012, 0xfe16a49b
0,     789120,     789120,      960,     2012, 0xef7fc32a
0,     790080,     790080,      960,     2012, 0xfe30c35d
0,     791040,     791040,      960,     2012, 0x3adc9610
0,     792000,     792000,      960,     2012, 0x36eeabdc
0,     792960,     792960,      960,     2012, 0xde3fb56c
0,     793920,     793920,      960,     2012, 0x5629bd82
0,     794880,     794880,      960,     2012, 0xb099a61d
0,     795840,     795840,      960,     2012, 0x3013b106
0,     796800,     796800,      960,     2012, 0xc359aef3
0,     797760,     797760,      960,     2012, 0xec01b3e1
0,     798720,     798720,      960,     2012, 0x6e8ac0b1
0,     799680,     799680,      960,     2012, 0x41e8b82d
0,     800640,     800640,      960,     2012, 0x3a2fb38b
0,     801600,     801600,      960,     2012, 0x7025aac9
0,     802560,     802560,      960,     2012, 0xbb0eb094
0,     803520,     803520,      960,     2012, 0xdc06c156
0,     804480,     804480,      960,     2012, 0x4007cea4
0,     805440,     805440,      960,     2012, 0x102ebe03
0,     806400,     806400,      960,     2012, 0x6e8faae7
0,     807360,     807360,      960,     2012, 0xa357aa0c
0,     808320,     808320,      960,     2012, 0x07d2bf4d
0,     809280,     809280,      960,     2012, 0xfb71b338
0,     810240,     810240,      960,     2012, 0xd5f1be84
0,     811200,     811200,      960,     2012, 0x2a7cb554
0,     812160,     812160,      960,     2012, 0xfb03b8c3
0,     813120,     813120,      960,     2012, 0x2ff1ca87
0,     814080,     814080,      960,     2012, 0xeef2b7f3
0,     815040,     815040,      960,     2012, 0x9377b15f
0,     816000,     816000,      960,     2012, 0x370cb0c2
0,     816960,     816960,      960,     2012, 0x5f78b118
0,     817920,     817920,      960,     2012, 0x19afa87a
0,     818880,     818880,      960,     2012, 0xc717ab0d
0,     819840,     819840,      960,     2012, 0x3ca499f4
0,     820800,     820800,      960,     2012, 0x9612b8e4
0,     821760,     821760,      960,     2012, 0x32c0bb29
0,     822720,     822720,      960,     2012, 0x7727beba
0,     823680,     823680,      960,     2012, 0x8b60a4cb
0,     824640,     824640,      960,     2012, 0xe899a9c8
0,     825600,     825600,      960,     2012, 0x60f4b7fe
0,     826560,     826560,      960,     2012, 0x544f9ecb
0,     827520,     827520,      960,     2012, 0x34afcd71
0,     828480,     828480,      960,     2012, 0x470eab55
0,     829440,     829440,      960,     2012, 0xe4959f93
0,     830400,     830400,      960,     2012, 0x69eeaf97
0,     831360,     831360,      960,     2012, 0x0ec9aca3
0,     832320,     832320,      960,     2012, 0x51e4b7f6
0,     833280,     833280,      960,     2012, 0xf6c0a837
0,     834240,     834240,      960,     2012, 0x3bdca59b
0,     835200,     835200,      960,     2012, 0x14c59dfc
0,     836160,     836160,      960,     2012, 0xa50ab23a
0,     837120,     837120,      960,     2012, 0x8832b6e2
0,     838080,     838080,      960,     2012, 0x3d699d1b
0,     839040,     839040,      960,     2012, 0x751aa4b8
0,     840000,     840000,      960,     2012, 0x59a9b98c
0,     840960,     840960,      960,     2012, 0xb67c98cb
0,     841920,     841920,      960,     2012, 0x0fd39ccd
0,     842880,     842880,      960,     2012, 0x9980d1e1
0,     843840,     843840,      960,     2012, 0xffd9a716
0,     844800,     844800,      960,     2012, 0x7d2fbed1
0,     845760,     845760,      960,     2012, 0x76e6b042
0,     846720,     846720,      960,     2012, 0xe027a232
0,     847680,     847680,      960,     2012, 0x7c6ca5ce
0,     848640,     848640,      960,     2012, 0x5cf6bda4
0,     849600,     849600,      960,     2012, 0x6075bd0d
0,     850560,     850560,      960,     2012, 0xedc4abe9
0,     851520,     851520,      960,     2012, 0xb8f7cc26
0,     852480,     852480,      960,     2012, 0x2cbbb500
0,     853440,     853440,      960,     2012, 0x1c34b04d
0,     854400,     854400,      960,     2012, 0x5f18bea2
0,     855360,     855360,      960,     2012, 0x94d0bb2b
0,     856320,     856320,      960,     2012, 0x6899b78e
0,     857280,     857280,      960,     2012, 0xc9aaa7a2
0,     858240,     858240,      960,     2012, 0x298cbafa
0,     859200,     859200,      960,     2012, 0x89d9ac80
0,     860160,     860160,      960,     2012, 0xc6ffa7e6
0,     861120,     861120,      960,     2012, 0xdcf7caf9
0,     862080,     862080,      960,     2012, 0x26cfb4ee
0,     863040,     863040,      960,     2012, 0xec70b09d
0,     864000,     864000,      960,     2012, 0x65dca50f
0,     864960,     864960,      960,     2012, 0xcdebc0b6
0,     865920,     865920,      960,     2012, 0x9393a262
0,     866880,     866880,      960,     2012, 0x34aab06d
0,     867840,     867840,      960,     2012, 0x4800a550
0,     868800,     868800,      960,     2012, 0x4d9aadec
0,     869760,     869760,      960,     2012, 0x2cddabb6
0,     870720,     870720,      960,     2012, 0x91a0c5b2
0,     871680,     871680,      960,     2012, 0xd326bee1
0,     872640,     872640,      960,     2012, 0xf76ab2d5
0,     873600,     873600,      960,     2012, 0xcef99ade
0,     874560,     874560,      960,     2012, 0x950dc76f
0,     875520,     875520,      960,     2012, 0xb6aca7ad
0,     876480,     876480,      960,     2012, 0x1aacb71c
0,     877440,     877440,      960,     2012, 0x32389da0
0,     878400,     878400,      960,     2012, 0x030cbcce
0,     879360,     879360,      960,     2012, 0x0ec4b0cb
0,     880320,     880320,      960,     2012, 0x6c0bb62e
0,     881280,     881280,      960,     2012, 0xfadbb20d
0,     882240,     882240,      960,     2012, 0x99c9c848
0,     883200,     883200,      960,     2012, 0xe3e3b21a
0,     884160,     884160,      960,     2012, 0x88d9a50b
0,     885120,     885120,      960,     2012, 0xf4bbaf17
0,     886080,     886080,      960,     2012, 0x49fea706
0,     887040,     887040,      960,     2012, 0xafd0babf
0,     888000,     888000,      960,     2012, 0x8970a8f3
0,     888960,     888960,      960,     2012, 0x9223a553
0,     889920,     889920,      960,     2012, 0x6ec2b2f9
0,     890880,     890880,      960,     2012, 0x7960b759
0,     891840,     891840,      960,     2012, 0x852891bf
0,     892800,     892800,      960,     2012, 0x094ebbeb
0,     893760,     893760,      960,     2012, 0xf9bab418
0,     894720,     894720,      960,     2012, 0x010eae8c
0,     895680,     895680,      960,     2012, 0x10baab3d
0,     896640,     896640,      960,     2012, 0x2564b13f
0,     897600,     897600,      960,     2012, 0xaec8ac22
0,     898560,     898560,      960,     2012, 0xda0cbd4f
0,     899520,     899520,      960,     2012, 0x97e1c075
0,     900480,     900480,      960,     2012, 0x6731aca5
0,     901440,     901440,      960,     2012, 0x2c1db696
0,     902400,     902400,      960,     2012, 0x8ff7abbf
0,     903360,     903360,      960,     2012, 0xf75ab3a2
0,     904320,     904320,      960,     2012, 0x8683b824
0,     905280,     905280,      960,     2012, 0x9668b354
0,     906240,     906240,      960,     2012, 0x6e9aae04
0,     907200,     907200,      960,     2012, 0xd8e9acd7
0,     908160,     908160,      960,     2012, 0xa326c298
0,     909120,     909120,      960,     2012, 0x6abcb409
0,     910080,     910080,      960,     2012, 0x7eb3b549
0,     911040,     911040,      960,     2012, 0xfc72ba6a
0,     912000,     912000,      960,     2012, 0xed73b2e6
0,     912960,     912960,      960,     2012, 0x07a6b0a9
0,     913920,     913920,      960,     2012, 0x10a4aec4
0,     914880,     914880,      960,     2012, 0xaac9a650
0,     915840,     915840,      960,     2012, 0x848b9869
0,     916800,     916800,      960,     2012, 0x1ddaafd6
0,     917760,     917760,      960,     2012, 0xe291aaec
0,     918720,     918720,      960,     2012, 0x8aa1aa4d
0,     919680,     919680,      960,     2012, 0x9b69b94c
0,     920640,     920640,      960,     2012, 0xe784bec0
0,     921600,     921600,      960,     2012, 0x9305ba2d
0,     922560,     922560,      960,     2012, 0x5616bb81
0,     923520,     923520,      960,     2012, 0xea0facca
0,     924480,     924480,      960,     2012, 0xe1b9991e
0,     925440,     925440,      960,     2012, 0xded8bd59
0,     926400,     926400,      960,     2012, 0xe79fb0ee
0,     927360,     927360,      960,     2012, 0x1b8595a6
0,     928320,     928320,      960,     2012, 0xb55ba336
0,     929280,     929280,      960,     2012, 0xc552bc98
0,     930240,     930240,      960,     2012, 0x2fe2c5ba
0,     931200,     931200,      960,     2012, 0xe18aa5a6
0,     932160,     932160,      960,     2012, 0xaa9bae1c
0,     933120,     933120,      960,     2012, 0xd1ddb68d
0,     934080,     934080,      960,     2012, 0x95bfb203
0,     935040,     935040,      960,     2012, 0xeacab8b9
0,     936000,     936000,      960,     2012, 0x5bfcb117
0,     936960,     936960,      960,     2012, 0x1a9fa91c
0,     937920,     937920,      960,     2012, 0xa285b180
0,     938880,     938880,      960,     2012, 0xfd58a6e2
0,     939840,     939840,      960,     2012, 0x394fc325
0,     940800,     940800,      960,     2012, 0x0415a6aa
0,     941760,     941760,      960,     2012, 0xf75fa5e0
0,     942720,     942720,      960,     2012, 0x115cd11b
0,     943680,     943680,      960,     2012, 0x6587b9e3
0,     944640,     944640,      960,     2012, 0xce6bb7e6
0,     945600,     945600,      960,     2012, 0xbaa2b409
0,     946560,     946560,      960,     2012, 0x271bbb14
0,     947520,     947520,      960,     2012, 0x4516c223
0,     948480,     948480,      960,     2012, 0x4f6ab266
0,     949440,     949440,      960,     2012, 0x244ba6fc
0,     950400,     950400,      960,     2012, 0x60e0ae4e
0,     951360,     951360,      960,     2012, 0xfc3cac80
0,     952320,     952320,      960,     2012, 0x8465b287
0,     953280,     953280,      960,     2012, 0xc683b070
0,     954240,     954240,      960,     2012, 0x2901c8e7
0,     955200,     955200,      960,     2012, 0x0622b1a1
0,     956160,     956160,      960,     2012, 0xe002b34c
0,     957120,     957120,      960,     2012, 0xf4969e79
0,     958080,     958080,      960,     2012, 0x871cc453
0,     959040,     959040,      960,     2012, 0x9a7daaf3
0,     960000,     960000,      960,     2012, 0xba92a60a
0,     960960,     960960,      960,     2012, 0xf464a0c4
0,     961920,     961920,      960,     2012, 0x53bbb6cd
0,     962880,     962880,      960,     2012, 0xb58a9d2a
0,     963840,     963840,      960,     2012, 0x1e1fb830
0,     964800,     964800,      960,     2012, 0xdc7eb93e
0,     965760,     965760,      960,     2012, 0xe6ceaaf9
0,     966720,     966720,      960,     2012, 0x8c7ea35d
0,     967680,     967680,      960,     2012, 0x0b87ba04
0,     968640,     968640,      960,     2012, 0xf516a700
0,     969600,     969600,      960,     2012, 0xfaf19e13
0,     970560,     970560,      960,     2012, 0x53cf9ed0
0,     971520,     971520,      960,     2012, 0x2e25c2f9
0,     972480,     972480,      960,     2012, 0x959aa1b8
0,     973440,     973440,      960,     2012, 0x2a49a572
0,     974400,     974400,      960,     2012, 0xf7a9b809
0,     975360,     975360,      960,     2012, 0x44a9b879
0,     976320,     976320,      960,     2012, 0xe428c0d4
0,     977280,     977280,      960,     2012, 0xc258c2c6
0,     978240,     978240,      960,     2012, 0xf7f3b794
0,     979200,     979200,      960,     2012, 0xa8adbad9
0,     980160,     980160,      960,     2012, 0xc2508e79
0,     981120,     981120,      960,     2012, 0x1418ac76
0,     982080,     982080,      960,     2012, 0xb28aadef
0,     983040,     983040,      960,     2012, 0xda17bd03
0,     984000,     984000,      960,     2012, 0xa92ab852
0,     984960,     984960,      960,     2012, 0xc3cbcfa4
0,     985920,     985920,      960,     2012, 0xf716bb5e
0,     986880,     986880,      960,     2012, 0x6009a8af
0,     987840,     987840,      960,     2012, 0x9e69bc81
0,     988800,     988800,      960,     2012, 0x3aafc8cf
0,     989760,     989760,      960,     2012, 0x03bccdab
0,     990720,     990720,      960,     2012, 0xfdceb2d9
0,     991680,     991680,      960,     2012, 0x68f7afb8
0,     992640,     992640,      960,     2012, 0xb7bab330
0,     993600,     993600,      960,     2012, 0x4976b125
0,     994560,     994560,      960,     2012, 0x7c86ae12
0,     995520,     995520,      960,     2012, 0x4ce4ca54
0,     996480,     996480,      960,     2012, 0xf1f7b892
0,     997440,     997440,      960,     2012, 0xf958abb1
0,     998400,     998400,      960,     2012, 0x047accd0
0,     999360,     999360,      960,     2012, 0x34a1c49c
0,    1000320,    1000320,      960,     2012, 0x4b24a4ed
0,    1001280,    1001280,      960,     2012, 0xea31b1bc
0,    1002240,    1002240,      960,     2012, 0x8beaa3e3
0,    1003200,    1003200,      960,     2012, 0x064caaf9
0,    1004160,    1004160,      960,     2012, 0x56babf15
0,    1005120,    1005120,      960,     2012, 0xd16fc6f4
0,    1006080,    1006080,      960,     2012, 0x4ac2b78a
0,    1007040,    1007040,      960,     2012, 0xba3aa509
0,    1008000,    1008000,      960,     2012, 0xc103b074
0,    1008960,    1008960,      960,     2012, 0x464aba98
0,    1009920,    1009920,      960,     2012, 0xaacac5a3
0,    1010880,    1010880,      960,     2012, 0x9cecbcfa
0,    1011840,    1011840,      960,     2012, 0x8da0ab79
0,    1012800,    1012800,      960,     2012, 0x85b2b023
0,    1013760,    1013760,      960,     2012, 0x598abc91
0,    1014720,    1014720,      960,     2012, 0x08c0a35c
0,    1015680,    1015680,      960,     2012, 0x30e4a7cf
0,    1016640,    1016640,      960,     2012, 0xf1e4a931
0,    1017600,    1017600,      960,     2012, 0x8a4fb6c1
0,    1018560,    1018560,      960,     2012, 0x126aac08
0,    1019520,    1019520,      960,     2012, 0x537fa51b
0,    1020480,    1020480,      960,     2012, 0x1e54ac5a
0,    1021440,    1021440,      960,     2012, 0x7274bbd0
0,    1022400,    1022400,      960,     2012, 0xd16bc2c2
0,    1023360,    1023360,      960,     2012, 0x9236c1e3
0,    1024320,    1024320,      960,     2012, 0x348aa7af
0,    1025280,    1025280,      960,     2012, 0xa020be5e
0,    1026240,    1026240,      960,     2012, 0x3cc5a4b8
0,    1027200,    1027200,      960,     2012, 0x8b19b649
0,    1028160,    1028160,      960,     2012, 0x554aa5ab
0,    1029120,    1029120,      960,     2012, 0x35d6ac35
0,    1030080,    1030080,      960,     2012, 0x64dba435
0,    1031040,    1031040,      960,     2012, 0x6001bae2
0,    1032000,    1032000,      960,     2012, 0x9220b599
0,    1032960,    1032960,      960,     2012, 0xa3fdb899
0,    1033920,    1033920,      960,     2012, 0x19a5abf4
0,    1034880,    1034880,      960,     2012, 0xd857b8cf
0,    1035840,    1035840,      960,     2012, 0x38d1b234
0,    1036800,    1036800,      960,     2012, 0x69f4bfb8
0,    1037760,    1037760,      960,     2012, 0xcc87a375
0,    1038720,    1038720,      960,     2012, 0xc1cdd0c5
0,    1039680,    1039680,      960,     2012, 0xba0ca3ee
0,    1040640,    1040640,      960,     2012, 0x4d20c397
0,    1041600,    1041600,      960,     2012, 0x825c9636
0,    1042560,    1042560,      960,     2012, 0x7aa4ae53
0,    1043520,    1043520,      960,     2012, 0xe970ae78
0,    1044480,    1044480,      960,     2012, 0x5fb2ba59
0,    1045440,    1045440,      960,     2012, 0xcd90a953
0,    1046400,    1046400,      960,     2012, 0xf573ac40
0,    1047360,    1047360,      960,     2012, 0x324cbd77
0,    1048320,    1048320,      960,     2012, 0xece0a73d
0,    1049280,    1049280,      960,     2012, 0x0dd1aefa
0,    1050240,    1050240,      960,     2012, 0xe338c866
0,    1051200,    1051200,      960,     2012, 0xfe71bffc
0,    1052160,    1052160,      960,     2012, 0x61a5a810
0,    1053120,    1053120,      960,     2012, 0x7c3ba074
0,    1054080,    1054080,      960,     2012, 0x492f9d91
0,    1055040,    1055040,      960,     2012, 0xa126a7b9
0,    1056000,    1056000,      960,     2012, 0x7cf19a40
0,    1056960,    1056960,      960,     2012, 0x1c2fbae6
0,    1057920,    1057920,      960,     2012, 0x540accdf
0,    1058880,    1058880,      960,     2012, 0x5908a938
0,    1059840,    1059840,      960,     2012, 0xe7f8b501
0,    1060800,    1060800,      960,     2012, 0x03a8b53e
0,    1061760,    1061760,      960,     2012, 0xb4e3bdda
0,    1062720,    1062720,      960,     2012, 0x9e86abe1
0,    1063680,    1063680,      960,     2012, 0x3234b98d
0,    1064640,    1064640,      960,     2012, 0x5caec781
0,    1065600,    1065600,      960,     2012, 0x5c21a32e
0,    1066560,    1066560,      960,     2012, 0x8b72c112
0,    1067520,    1067520,      960,     2012, 0x2ec2bac3
0,    1068480,    1068480,      960,     2012, 0xd9c4adaa
0,    1069440,    1069440,      960,     2012, 0x2da1b496
0,    1070400,    1070400,      960,     2012, 0x0a51b21e
0,    1071360,    1071360,      960,     2012, 0x6414ab0d
0,    1072320,    1072320,      960,     2012, 0x95c4b203
0,    1073280,    1073280,      960,     2012, 0x98e0b4a2
0,    1074240,    1074240,      960,     2012, 0x34369f5f
0,    1075200,    1075200,      960,     2012, 0x9dffa40c
0,    1076160,    1076160,      960,     2012, 0xf345b0e5
0,    1077120,    1077120,      960,     2012, 0x6714bdbf
0,    1078080,    1078080,      960,     2012, 0xc276c3d1
0,    1079040,    1079040,      960,     2012, 0xf199b475
0,    1080000,    1080000,      960,     2012, 0x3395cf3b
0,    1080960,    1080960,      960,     2012, 0x4b52afb0
0,    1081920,    1081920,      960,     2012, 0x3f74b217
0,    1082880,    1082880,      960,     2012, 0xa25cad38
0,    1083840,    1083840,      960,     2012, 0x3290a5b4
0,    1084800,    1084800,      960,     2012, 0x2917b750
0,    1085760,    1085760,      960,     2012, 0xeb3ec739
0,    1086720,    1086720,      960,     2012, 0xbf9ea51d
0,    1087680,    1087680,      960,     2012, 0x98e2a0c1
0,    1088640,    1088640,      960,     2012, 0xa39ba7f2
0,    1089600,    1089600,      960,     2012, 0x6df7a05c
0,    1090560,    1090560,      960,     2012, 0x2c1bba28
0,    1091520,    1091520,      960,     2012, 0x6099b1cd
0,    1092480,    1092480,      960,     2012, 0x9366b9f2
0,    1093440,    1093440,      960,     2012, 0x95899570
0,    1094400,    1094400,      960,     2012, 0x6234a0c8
0,    1095360,    1095360,      960,     2012, 0xec2cbcfc
0,    1096320,    1096320,      960,     2012, 0x3ff7a9db
0,    1097280,    1097280,      960,     2012, 0x4e44bad7
0,    1098240,    1098240,      960,     2012, 0x1dbbbc39
0,    1099200,    1099200,      960,     2012, 0xf9df99be
0,    1100160,    1100160,      960,     2012, 0xa713b313
0,    1101120,    1101120,      960,     2012, 0x8bbdbe51
0,    1102080,    1102080,      960,     2012, 0x0d5bc786
0,    1103040,    1103040,      960,     2012, 0x75d293f2
0,    1104000,    1104000,      960,     2012, 0x4832b688
0,    1104960,    1104960,      960,     2012, 0x71aba74c
0,    1105920,    1105920,      960,     2012, 0x04d5abf2
0,    1106880,    1106880,      960,     2012, 0xaa8fbd98
0,    1107840,    1107840,      960,     2012, 0xd93eb6d4
0,    1108800,    1108800,      960,     2012, 0x8fb6b5a8
0,    1109760,    1109760,      960,     2012, 0x779a92f5
0,    1110720,    1110720,      960,     2012, 0x35c8ab3d
0,    1111680,    1111680,      960,     2012, 0x0017aaa5
0,    1112640,    1112640,      960,     2012, 0xd6e7bafe
0,    1113600,    1113600,      960,     2012, 0xe358b423
0,    1114560,    1114560,      960,     2012, 0x3f74bfba
0,    1115520,    1115520,      960,     2012, 0x0a5eb707
0,    1116480,    1116480,      960,     2012, 0xedbfb0df
0,    1117440,    1117440,      960,     2012, 0x2e71a26f
0,    1118400,    1118400,      960,     2012, 0x214db1a8
0,    1119360,    1119360,      960,     2012, 0xb632c275
0,    1120320,    1120320,      960,     2012, 0xb597cf92
0,    1121280,    1121280,      960,     2012, 0x18a8b508
0,    1122240,    1122240,      960,     2012, 0x8267b4ff
0,    1123200,    1123200,      960,     2012, 0x5a9ab8d6
0,    1124160,    1124160,      960,     2012, 0x2037a2b6
